<svg xmlns="http://www.w3.org/2000/svg" viewBox="0 0 24 24" id="chrome" fill="currentColor"><g transform="translate(-40 -40)"><rect width="24" height="24" x="40" y="40" fill="currentColor" stroke="currentColor"></rect><path d="M187.294,433.443C189.285,430.806 192.445,429.1 196,429.1C200.439,429.1 204.262,431.759 205.961,435.571C205.986,435.616 206.006,435.663 206.023,435.712C206.587,437.028 206.9,438.478 206.9,440C206.9,446.016 202.016,450.9 196,450.9C195.61,450.9 195.224,450.879 194.844,450.839C194.801,450.838 194.758,450.833 194.715,450.825C189.303,450.188 185.1,445.581 185.1,440C185.1,437.615 185.868,435.407 187.169,433.612C187.204,433.552 187.246,433.495 187.294,433.443ZM199.794,436.9C200.485,437.745 200.9,438.824 200.9,440C200.9,440.957 200.625,441.85 200.15,442.605L196.409,449.091C201.242,448.877 205.1,444.885 205.1,440C205.1,438.912 204.909,437.868 204.557,436.9L199.794,436.9ZM187.922,435.809C187.269,437.064 186.9,438.489 186.9,440C186.9,444.478 190.142,448.206 194.406,448.961L196.784,444.837C196.529,444.879 196.267,444.9 196,444.9C194.119,444.9 192.485,443.838 191.664,442.282L187.922,435.809ZM198.719,441.489C198.962,441.047 199.1,440.539 199.1,440C199.1,438.289 197.711,436.9 196,436.9C194.289,436.9 192.9,438.289 192.9,440C192.9,440.511 193.024,440.992 193.243,441.417L193.319,441.55C193.331,441.57 193.342,441.591 193.352,441.612C193.896,442.504 194.879,443.1 196,443.1C197.095,443.1 198.058,442.531 198.61,441.673L198.68,441.55C198.693,441.529 198.706,441.509 198.719,441.489ZM203.668,435.1C202.05,432.575 199.219,430.9 196,430.9C193.208,430.9 190.707,432.161 189.037,434.143L191.418,438.261C192.12,436.414 193.908,435.1 196,435.1L203.668,435.1Z" transform="translate(-144 -388)"></path></g></svg>
