<svg xmlns="http://www.w3.org/2000/svg" viewBox="0 0 32 32" id="line" fill="currentColor"><g data-name="line chat chatting message"><path d="M30 13.14a1 1 0 0 0-1 1 8.66 8.66 0 0 1-.18 1.67 1.36 1.36 0 0 0 0 .2 7.1 7.1 0 0 1-.82 2.25 10.77 10.77 0 0 1-2.79 3.33 43.64 43.64 0 0 1-8.76 5.85l.17-.85A1.76 1.76 0 0 0 15 24.48c-6.44-.57-11.29-5-11.29-10.34C3.69 8.4 9.37 3.72 16.34 3.72a13.3 13.3 0 0 1 10.85 5.06 1 1 0 0 0 1.62-1.18 15.32 15.32 0 0 0-12.47-5.88c-8.08 0-14.65 5.57-14.65 12.42 0 6.3 5.52 11.56 12.88 12.31L14 29.08a1 1 0 0 0 .37 1 1 1 0 0 0 .61.21 1 1 0 0 0 .45-.11 49.34 49.34 0 0 0 11-7.06 12.55 12.55 0 0 0 3.24-3.89 8.75 8.75 0 0 0 1.1-3.08s0-.08 0-.12a10.64 10.64 0 0 0 .23-1.89 1 1 0 0 0-1-1Z"></path><path d="M7 11a1 1 0 0 0-1 1v5a1 1 0 0 0 1 1h3a1 1 0 0 0 0-2H8v-4a1 1 0 0 0-1-1zm5 1v5a1 1 0 0 0 2 0v-5a1 1 0 0 0-2 0zm7 0v2.15l-2.22-2.77a1 1 0 0 0-1.11-.32A1 1 0 0 0 15 12v5a1 1 0 0 0 2 0v-2.15l2.22 2.78A1 1 0 0 0 20 18a1 1 0 0 0 .33-.06A1 1 0 0 0 21 17v-5a1 1 0 0 0-2 0zm7 1a1 1 0 0 0 0-2h-3a1 1 0 0 0-1 1v5a1 1 0 0 0 1 1h3a1 1 0 0 0 0-2h-2v-.5h2a1 1 0 0 0 0-2h-2V13z"></path></g></svg>